<?xml version="1.0" standalone="no"?>
<!DOCTYPE svg PUBLIC "-//W3C//DTD SVG 20010904//EN"
 "http://www.w3.org/TR/2001/REC-SVG-20010904/DTD/svg10.dtd">
<svg version="1.0" xmlns="http://www.w3.org/2000/svg"
 width="535.000000pt" height="535.000000pt" viewBox="0 0 535.000000 535.000000"
 preserveAspectRatio="xMidYMid meet">
<metadata>
Created by potrace 1.14, written by Peter Selinger 2001-2017
</metadata>
<g transform="translate(0.000000,535.000000) scale(0.100000,-0.100000)"
fill="#000000" stroke="none">
<path d="M2586 5228 c-9 -5 -16 -6 -16 -3 0 4 -6 0 -14 -7 -8 -7 -29 -24 -46
-38 -18 -13 -57 -48 -86 -77 -29 -29 -57 -53 -61 -53 -5 0 -16 -12 -25 -27
-19 -31 -54 -77 -80 -105 -10 -10 -18 -20 -18 -23 0 -3 -9 -15 -20 -27 -30
-33 -109 -201 -116 -249 -4 -24 -10 -50 -14 -58 -9 -16 -40 -24 -40 -10 0 5
-5 9 -11 9 -6 0 -25 10 -42 23 -46 32 -83 51 -162 82 -39 15 -74 31 -80 35
-23 17 -147 51 -240 66 -76 12 -136 15 -250 10 -254 -10 -339 -46 -401 -168
-80 -157 -109 -579 -54 -775 11 -40 20 -80 20 -89 0 -9 8 -22 17 -29 15 -11
15 -18 4 -54 -6 -23 -16 -39 -21 -36 -16 10 -130 -23 -207 -59 -134 -64 -238
-145 -351 -276 -102 -117 -108 -124 -172 -218 -95 -140 -108 -198 -66 -301 58
-144 321 -465 457 -558 66 -46 197 -109 259 -127 58 -15 170 -31 207 -29 28 2
22 -15 -24 -64 -71 -76 -125 -227 -145 -405 -22 -195 15 -480 78 -615 75 -157
177 -203 454 -203 329 1 518 83 695 305 26 33 49 61 50 63 1 1 2 -13 3 -32 2
-58 39 -209 72 -294 70 -181 260 -417 408 -505 42 -25 55 -28 118 -25 62 3 78
8 125 39 69 47 165 142 244 244 151 196 202 320 242 595 l8 55 53 -81 c61 -94
183 -216 262 -261 126 -72 253 -103 425 -103 197 0 329 40 398 121 43 49 92
173 114 282 24 125 22 411 -5 542 -22 111 -55 201 -102 276 -16 27 -30 53 -30
58 0 10 58 21 115 21 105 1 284 82 404 182 156 131 381 425 416 542 28 94 17
140 -64 263 -146 223 -336 401 -516 485 -81 38 -180 68 -222 68 -13 0 -23 6
-23 13 0 7 -12 36 -26 64 -23 47 -24 54 -10 75 25 39 48 177 53 323 12 315
-49 529 -170 599 -109 63 -306 91 -518 75 -180 -14 -362 -86 -518 -205 -75
-58 -74 -58 -85 12 -7 37 -30 103 -47 135 -26 46 -64 104 -71 107 -5 2 -8 13
-8 23 0 11 -4 17 -10 14 -5 -3 -10 0 -10 8 0 8 -18 34 -40 57 -22 23 -40 44
-40 46 0 19 -227 244 -246 244 -3 0 -19 9 -34 20 -30 22 -112 26 -144 8z"/>
</g>
</svg>
